<svg width="102" height="115" viewBox="0 0 102 115" fill="none" xmlns="http://www.w3.org/2000/svg">
<circle cx="58" cy="53" r="44" fill="#DB5C4C"/>
<path d="M44.7443 114.705C37.0739 114.705 30.4688 112.893 24.929 109.271C19.3892 105.649 15.1278 100.66 12.1449 94.3033C9.16193 87.9467 7.67046 80.6847 7.67046 72.517C7.67046 64.2074 9.19744 56.8743 12.2514 50.5178C15.3409 44.1257 19.6378 39.1364 25.142 35.5497C30.6818 31.9276 37.1449 30.1165 44.5312 30.1165C50.2841 30.1165 55.4688 31.1818 60.0852 33.3125C64.7017 35.4432 68.4837 38.4261 71.4311 42.2614C74.3786 46.0966 76.2074 50.571 76.9176 55.6847H64.3466C63.3878 51.956 61.2571 48.6534 57.9545 45.777C54.6875 42.8651 50.2841 41.4091 44.7443 41.4091C39.8438 41.4091 35.5469 42.6875 31.8537 45.2443C28.196 47.7656 25.3374 51.3345 23.2777 55.951C21.2536 60.532 20.2415 65.9119 20.2415 72.0909C20.2415 78.4119 21.2358 83.9162 23.2244 88.6037C25.2486 93.2912 28.0895 96.9311 31.7472 99.5234C35.4403 102.116 39.7727 103.412 44.7443 103.412C48.0114 103.412 50.9766 102.844 53.6399 101.707C56.3033 100.571 58.5582 98.9375 60.4048 96.8068C62.2514 94.6761 63.5653 92.1193 64.3466 89.1364H76.9176C76.2074 93.9659 74.4496 98.3161 71.6442 102.187C68.8743 106.022 65.1989 109.076 60.6179 111.349C56.0724 113.586 50.7813 114.705 44.7443 114.705ZM35.2947 113V31.1818H47.8658V113H35.2947ZM41.6868 17.5455C39.2365 17.5455 37.1236 16.7109 35.348 15.0419C33.608 13.3729 32.7379 11.3665 32.7379 9.02273C32.7379 6.67898 33.608 4.67258 35.348 3.00355C37.1236 1.33452 39.2365 0.5 41.6868 0.5C44.1371 0.5 46.2322 1.33452 47.9723 3.00355C49.7479 4.67258 50.6357 6.67898 50.6357 9.02273C50.6357 11.3665 49.7479 13.3729 47.9723 15.0419C46.2322 16.7109 44.1371 17.5455 41.6868 17.5455Z" fill="white"/>
</svg>
